# xmcd
#
# Track frame offsets:
#	150
#	19467
#	47295
#
# Disc length: 978 seconds
#
# Revision: 0
# Processed by: cddbd v1.5.2PL0 Copyright (c) Steve Scherf et al.
# Submitted via: audiograbber 1.83.01
#
DISCID=1b03d003
DTITLE=Janina Frostell - Insanity (Why It Always Happens To Me) [CDM)
DYEAR=2002
DGENRE=Dance
TTITLE0=Insanity (Why It Always Happens To Me)
TTITLE1=Insanity (Jayer Club Mix)
TTITLE2=Insanity (DJ Slow Remix)
EXTD=TR.
EXTT0=
EXTT1=
EXTT2=
PLAYORDER=
